<?xml version="1.0" encoding="UTF-8" standalone="no"?>
<!-- Created with Inkscape (http://www.inkscape.org/) -->

<svg
   width="148mm"
   height="210mm"
   viewBox="0 0 148 210"
   version="1.1"
   id="svg5"
   inkscape:version="1.1.1 (3bf5ae0d25, 2021-09-20)"
   sodipodi:docname="CAMARA.svg"
   xmlns:inkscape="http://www.inkscape.org/namespaces/inkscape"
   xmlns:sodipodi="http://sodipodi.sourceforge.net/DTD/sodipodi-0.dtd"
   xmlns="http://www.w3.org/2000/svg"
   xmlns:svg="http://www.w3.org/2000/svg"
   xmlns:ooo="http://xml.openoffice.org/svg/export">
  <sodipodi:namedview
     id="namedview7"
     pagecolor="#ffffff"
     bordercolor="#111111"
     borderopacity="1"
     inkscape:pageshadow="0"
     inkscape:pageopacity="0"
     inkscape:pagecheckerboard="1"
     inkscape:document-units="mm"
     showgrid="true"
     inkscape:zoom="1.0482005"
     inkscape:cx="447.91049"
     inkscape:cy="478.439"
     inkscape:window-width="1920"
     inkscape:window-height="1017"
     inkscape:window-x="1672"
     inkscape:window-y="-8"
     inkscape:window-maximized="1"
     inkscape:current-layer="layer1">
    <inkscape:grid
       type="xygrid"
       id="grid1817" />
  </sodipodi:namedview>
  <defs
     id="defs2">
    <clipPath
       id="presentation_clip_path"
       clipPathUnits="userSpaceOnUse">
      <rect
         x="0"
         y="0"
         width="21000"
         height="29700"
         id="rect78" />
    </clipPath>
    <clipPath
       id="presentation_clip_path_shrink"
       clipPathUnits="userSpaceOnUse">
      <rect
         x="21"
         y="29"
         width="20958"
         height="29641"
         id="rect81" />
    </clipPath>
    <g
       id="bullet-char-template-57356"
       transform="matrix(4.8828125e-4,0,0,-4.8828125e-4,0,0)">
      <path
         d="M 580,1141 1163,571 580,0 -4,571 Z"
         id="path88" />
    </g>
    <g
       id="bullet-char-template-57354"
       transform="matrix(4.8828125e-4,0,0,-4.8828125e-4,0,0)">
      <path
         d="M 8,1128 H 1137 V 0 H 8 Z"
         id="path91" />
    </g>
    <g
       id="bullet-char-template-10146"
       transform="matrix(4.8828125e-4,0,0,-4.8828125e-4,0,0)">
      <path
         d="M 174,0 602,739 174,1481 1456,739 Z M 1358,739 309,1346 659,739 Z"
         id="path94" />
    </g>
    <g
       id="bullet-char-template-10132"
       transform="matrix(4.8828125e-4,0,0,-4.8828125e-4,0,0)">
      <path
         d="M 2015,739 1276,0 H 717 l 543,543 H 174 v 393 h 1086 l -543,545 h 557 z"
         id="path97" />
    </g>
    <g
       id="bullet-char-template-10007"
       transform="matrix(4.8828125e-4,0,0,-4.8828125e-4,0,0)">
      <path
         d="m 0,-2 c -7,16 -16,29 -25,39 l 381,530 c -94,256 -141,385 -141,387 0,25 13,38 40,38 9,0 21,-2 34,-5 21,4 42,12 65,25 l 27,-13 111,-251 280,301 64,-25 24,25 c 21,-10 41,-24 62,-43 C 886,937 835,863 770,784 769,783 710,716 594,584 L 774,223 c 0,-27 -21,-55 -63,-84 l 16,-20 C 717,90 699,76 672,76 641,76 570,178 457,381 L 164,-76 c -22,-34 -53,-51 -92,-51 -42,0 -63,17 -64,51 -7,9 -10,24 -10,44 0,9 1,19 2,30 z"
         id="path100" />
    </g>
    <g
       id="bullet-char-template-10004"
       transform="matrix(4.8828125e-4,0,0,-4.8828125e-4,0,0)">
      <path
         d="M 285,-33 C 182,-33 111,30 74,156 52,228 41,333 41,471 c 0,78 14,145 41,201 34,71 87,106 158,106 53,0 88,-31 106,-94 l 23,-176 c 8,-64 28,-97 59,-98 l 735,706 c 11,11 33,17 66,17 42,0 63,-15 63,-46 V 965 c 0,-36 -10,-64 -30,-84 L 442,47 C 390,-6 338,-33 285,-33 Z"
         id="path103" />
    </g>
    <g
       id="bullet-char-template-9679"
       transform="matrix(4.8828125e-4,0,0,-4.8828125e-4,0,0)">
      <path
         d="M 813,0 C 632,0 489,54 383,161 276,268 223,411 223,592 c 0,181 53,324 160,431 106,107 249,161 430,161 179,0 323,-54 432,-161 108,-107 162,-251 162,-431 0,-180 -54,-324 -162,-431 C 1136,54 992,0 813,0 Z"
         id="path106" />
    </g>
    <g
       id="bullet-char-template-8226"
       transform="matrix(4.8828125e-4,0,0,-4.8828125e-4,0,0)">
      <path
         d="m 346,457 c -73,0 -137,26 -191,78 -54,51 -81,114 -81,188 0,73 27,136 81,188 54,52 118,78 191,78 73,0 134,-26 185,-79 51,-51 77,-114 77,-187 0,-75 -25,-137 -76,-188 -50,-52 -112,-78 -186,-78 z"
         id="path109" />
    </g>
    <g
       id="bullet-char-template-8211"
       transform="matrix(4.8828125e-4,0,0,-4.8828125e-4,0,0)">
      <path
         d="M -4,459 H 1135 V 606 H -4 Z"
         id="path112" />
    </g>
    <g
       id="bullet-char-template-61548"
       transform="matrix(4.8828125e-4,0,0,-4.8828125e-4,0,0)">
      <path
         d="m 173,740 c 0,163 58,303 173,419 116,115 255,173 419,173 163,0 302,-58 418,-173 116,-116 174,-256 174,-419 0,-163 -58,-303 -174,-418 C 1067,206 928,148 765,148 601,148 462,206 346,322 231,437 173,577 173,740 Z"
         id="path115" />
    </g>
    <clipPath
       id="presentation_clip_path-1"
       clipPathUnits="userSpaceOnUse">
      <rect
         x="0"
         y="0"
         width="21052"
         height="29752"
         id="rect1108" />
    </clipPath>
    <clipPath
       id="presentation_clip_path_shrink-0"
       clipPathUnits="userSpaceOnUse">
      <rect
         x="21"
         y="29"
         width="21010"
         height="29693"
         id="rect1111" />
    </clipPath>
    <g
       ooo:slide="id1"
       ooo:id-list="id3 id4"
       id="g1116" />
    <g
       id="bullet-char-template-57356-4"
       transform="matrix(4.8828125e-4,0,0,-4.8828125e-4,0,0)">
      <path
         d="M 580,1141 1163,571 580,0 -4,571 Z"
         id="path1120" />
    </g>
    <g
       id="bullet-char-template-57354-5"
       transform="matrix(4.8828125e-4,0,0,-4.8828125e-4,0,0)">
      <path
         d="M 8,1128 H 1137 V 0 H 8 Z"
         id="path1123" />
    </g>
    <g
       id="bullet-char-template-10146-6"
       transform="matrix(4.8828125e-4,0,0,-4.8828125e-4,0,0)">
      <path
         d="M 174,0 602,739 174,1481 1456,739 Z M 1358,739 309,1346 659,739 Z"
         id="path1126" />
    </g>
    <g
       id="bullet-char-template-10132-3"
       transform="matrix(4.8828125e-4,0,0,-4.8828125e-4,0,0)">
      <path
         d="M 2015,739 1276,0 H 717 l 543,543 H 174 v 393 h 1086 l -543,545 h 557 z"
         id="path1129" />
    </g>
    <g
       id="bullet-char-template-10007-6"
       transform="matrix(4.8828125e-4,0,0,-4.8828125e-4,0,0)">
      <path
         d="m 0,-2 c -7,16 -16,29 -25,39 l 381,530 c -94,256 -141,385 -141,387 0,25 13,38 40,38 9,0 21,-2 34,-5 21,4 42,12 65,25 l 27,-13 111,-251 280,301 64,-25 24,25 c 21,-10 41,-24 62,-43 C 886,937 835,863 770,784 769,783 710,716 594,584 L 774,223 c 0,-27 -21,-55 -63,-84 l 16,-20 C 717,90 699,76 672,76 641,76 570,178 457,381 L 164,-76 c -22,-34 -53,-51 -92,-51 -42,0 -63,17 -64,51 -7,9 -10,24 -10,44 0,9 1,19 2,30 z"
         id="path1132" />
    </g>
    <g
       id="bullet-char-template-10004-4"
       transform="matrix(4.8828125e-4,0,0,-4.8828125e-4,0,0)">
      <path
         d="M 285,-33 C 182,-33 111,30 74,156 52,228 41,333 41,471 c 0,78 14,145 41,201 34,71 87,106 158,106 53,0 88,-31 106,-94 l 23,-176 c 8,-64 28,-97 59,-98 l 735,706 c 11,11 33,17 66,17 42,0 63,-15 63,-46 V 965 c 0,-36 -10,-64 -30,-84 L 442,47 C 390,-6 338,-33 285,-33 Z"
         id="path1135" />
    </g>
    <g
       id="bullet-char-template-9679-1"
       transform="matrix(4.8828125e-4,0,0,-4.8828125e-4,0,0)">
      <path
         d="M 813,0 C 632,0 489,54 383,161 276,268 223,411 223,592 c 0,181 53,324 160,431 106,107 249,161 430,161 179,0 323,-54 432,-161 108,-107 162,-251 162,-431 0,-180 -54,-324 -162,-431 C 1136,54 992,0 813,0 Z"
         id="path1138" />
    </g>
    <g
       id="bullet-char-template-8226-9"
       transform="matrix(4.8828125e-4,0,0,-4.8828125e-4,0,0)">
      <path
         d="m 346,457 c -73,0 -137,26 -191,78 -54,51 -81,114 -81,188 0,73 27,136 81,188 54,52 118,78 191,78 73,0 134,-26 185,-79 51,-51 77,-114 77,-187 0,-75 -25,-137 -76,-188 -50,-52 -112,-78 -186,-78 z"
         id="path1141" />
    </g>
    <g
       id="bullet-char-template-8211-8"
       transform="matrix(4.8828125e-4,0,0,-4.8828125e-4,0,0)">
      <path
         d="M -4,459 H 1135 V 606 H -4 Z"
         id="path1144" />
    </g>
    <g
       id="bullet-char-template-61548-6"
       transform="matrix(4.8828125e-4,0,0,-4.8828125e-4,0,0)">
      <path
         d="m 173,740 c 0,163 58,303 173,419 116,115 255,173 419,173 163,0 302,-58 418,-173 116,-116 174,-256 174,-419 0,-163 -58,-303 -174,-418 C 1067,206 928,148 765,148 601,148 462,206 346,322 231,437 173,577 173,740 Z"
         id="path1147" />
    </g>
  </defs>
  <g
     inkscape:label="Capa 1"
     inkscape:groupmode="layer"
     id="layer1">
    <g
       id="g1735"
       transform="matrix(0.25438893,0,0,0.25438893,0.65489785,19.767475)">
      <path
         d="m 204.64844,106.36719 c -3.42188,1.19531 -5.92578,4.14453 -6.55078,7.71484 -0.625,3.57422 0.73046,7.19922 3.54296,9.48438 2.8125,2.28515 6.64063,2.87109 10.00782,1.52734 17.78125,-6.67578 37.38672,-6.67578 55.16797,0 5.13281,1.79297 10.7539,-0.84375 12.66015,-5.94141 1.90235,-5.08984 -0.60937,-10.77343 -5.66406,-12.78515 -22.30078,-8.351565 -46.86328,-8.351565 -69.16406,0 z m 0,0"
         id="path1708" />
      <path
         d="m 299.03906,84.734375 c 4.60547,-0.0078 8.60938,-3.15625 9.70313,-7.628906 1.09375,-4.46875 -1.01172,-9.113281 -5.09766,-11.242188 -40.37109,-20.914062 -88.39453,-20.914062 -128.76953,0 -3.30078,1.566407 -5.48828,4.816407 -5.69141,8.460938 -0.21093,3.652343 1.58594,7.121093 4.6875,9.054687 3.09766,1.933594 7.00782,2.027344 10.19141,0.234375 34.61719,-17.925781 75.77734,-17.925781 110.39453,0 1.41797,0.734375 2.98828,1.121094 4.58203,1.121094 z m 0,0"
         id="path1710" />
      <path
         d="m 156.56641,43.203125 c 50.78515,-30.953125 114.60546,-30.953125 165.38671,0 4.69532,2.621094 10.625,1.058594 13.42579,-3.535156 2.78906,-4.597657 1.4414,-10.582031 -3.04688,-13.539063 -57.15625,-34.839844 -128.98047,-34.839844 -186.14062,0 -4.72266,2.863282 -6.22657,9.011719 -3.35938,13.734375 2.86328,4.722657 9.01563,6.226563 13.73438,3.359375 z m 0,0"
         id="path1712" />
      <path
         d="m 569.1875,140.10156 h -59.98438 c -5.52343,0 -10,4.47656 -10,9.9961 v 238.44921 l -114.69921,42.1875 C 373.77344,418.36719 358.4375,410.9375 342.07812,410.17969 l -15.35546,-42.53907 -65.76954,23.81641 21.4375,59.57813 c -9.6914,28.77734 3.67969,60.25781 31.1211,73.26953 27.44531,13.01172 60.28125,3.4375 76.42969,-22.28516 l 109.26171,-38.88672 v 126.8711 c 0,5.51953 4.47657,9.99609 10,9.99609 h 59.98438 c 5.52344,0 10,-4.47656 10,-9.99609 V 150.09766 c 0,-5.51953 -4.47656,-9.9961 -10,-9.9961 z m 0,0"
         id="path1714" />
      <path
         d="m 444.41406,303.46484 c 5.19141,-1.8789 7.875,-7.60547 6,-12.79687 l -21.26172,-58.53516 c -11.77343,12.80078 -26.41797,22.61328 -42.73047,28.6211 l -244.40234,88.98046 c -11.95312,4.39063 -24.59375,6.62891 -37.32812,6.60938 -4.59375,-0.0312 -9.183598,-0.36719 -13.738285,-1 l 17.835935,48.98828 3.39844,9.40234 c 0.9375,2.49219 2.79688,4.53516 5.19922,5.69532 1.32422,0.58984 2.75391,0.89843 4.19922,0.89843 1.16015,0.004 2.3125,-0.19921 3.40234,-0.60156 z m 0,0"
         id="path1716" />
      <path
         d="m 68.066406,349.98047 c -1.375,-0.48828 -2.726562,-0.84766 -4.105468,-1.40235 C 48,342.29687 33.757812,332.30859 22.417969,319.44141 l -16.496094,6 c -5.1875,1.8789 -7.875,7.60547 -6,12.79687 l 27.386719,75.20313 c 0.933594,2.5 2.796875,4.53906 5.199218,5.69531 1.320313,0.59765 2.75,0.90234 4.199219,0.90234 1.15625,0.008 2.308594,-0.19922 3.398438,-0.59765 l 37.59375,-13.69922 c 5.1875,-1.87891 7.867187,-7.60547 5.996093,-12.79688 z m 0,0"
         id="path1718" />
      <path
         d="m 135.1875,330.95703 244.34375,-88.98047 c 14.87891,-5.38672 28.0625,-14.63281 38.19141,-26.79297 13.54687,-16.21484 20.97656,-36.66406 20.99609,-57.78515 0.0273,-10.47266 -1.80078,-20.86719 -5.39844,-30.69922 -1.8789,-5.1836 -7.60547,-7.86719 -12.79687,-5.99219 L 25.910156,264.27344 c -5.191406,1.8789 -7.875,7.60547 -6,12.79687 8.742188,24.28125 27.550782,43.60156 51.589844,52.98828 5.550781,2.28516 11.359375,3.89844 17.296875,4.80078 5.234375,0.9961 10.5625,1.4961 15.894535,1.4961 10.40234,0 20.72265,-1.82422 30.49609,-5.39844 z m 0,0"
         id="path1720" />
    </g>
  </g>
</svg>
